<?xml version="1.0" encoding="UTF-8" standalone="no"?><svg id="svg2" xmlns="http://www.w3.org/2000/svg" width="100%" height="100%" viewBox="0 0 400 300" version="1.1"><desc id="interval">100</desc><defs></defs><g id="layer1"><path fill="#FFF" d="M0,300,0,0,400,0,400,300,0,300z"/><path d="M0,300,0,0,400,0,400,300,0,300z" fill="#b9d0ff"/><path stroke-linejoin="miter" d="m347.86,227.28c0.69536-1.0553,0.59183-2.203,0.60604-4.2422-1.1666-2.3636,2.465-4.5921,5.5755-1.9393,1.0751-0.2831,3.1155,2.1667,2.0605,4.2422,2.07,3.3617-1.536,5.5552-3.3938,5.3331l-2.7878,1.2121-2.0605-4.6059z" stroke="#000" stroke-linecap="butt" stroke-width="1px" fill="#824400"/><path stroke-linejoin="miter" d="m353.08,240.49c3.5529,2.3061,6.7358,15.534,3.1514,19.878-1.9313,2.3407-10.664-1.7897-14.424-4.6059l4.3634,2.909c-1.4954,4.8576-5.4364,8.3238-10.303,6.0603-1.5033-4.0754-2.215-8.3281,0.72724-12.727,14.398,1.4226,16.081-4.6679,16.484-11.515z" stroke="#000" stroke-linecap="butt" stroke-width="1px" fill="#824400"/><path stroke-linejoin="round" d="m313.53,187.39c-0.1375-4.1363-2.1631-5.8994-5.0839-6.5373" stroke="#000" stroke-linecap="round" stroke-width="1px" fill="none"/><path stroke-linejoin="round" d="m290.18,196.36c2.2294-7.3044,3.8052-13.882,1.1716-17.461" stroke="#000" stroke-linecap="round" stroke-width="1px" fill="none"/><path stroke-linejoin="round" d="m287.18,199.19c1.5805-10.222,0.15844-16.931-5.9868-18.114" stroke="#000" stroke-linecap="round" stroke-width="1px" fill="none"/><path stroke-linejoin="miter" d="m299.34,223.74c-15.626,9.3981-36.596-8.6182-31.971-17.168,9.4006-17.378,46.132,8.6504,31.971,17.168z" stroke="#000" stroke-linecap="butt" stroke-width="1px" fill="#c87f7f"/><path stroke-linejoin="miter" d="m180.45,217.32c-3.8098,11.611-29.658,15.277-36.313,5.0279-5.3748-8.2777,5.8453-23.946,15.642-25.14,9.5428-1.1628,23.668,10.978,20.67,20.112z" stroke="#000" stroke-linecap="butt" stroke-width="1px" fill="#d8d8d8"/><path stroke-linejoin="miter" d="m0,210.61c27.291-1.1258,40.531,14.868,68.156,17.318,16.589,1.4716,67.42-23.716,78.212-41.899,8.31-45.19-63.867-48.22-93.856-65.92-10.454-6.17-35.196-38.732-52.514-58.099" stroke="#020202" stroke-linecap="butt" stroke-width="1px" fill="#375062"/><path stroke-linejoin="miter" d="m133.52,138.55c5.7237-34.69-29.128-53.317-58.659-54.481,17.675,22.288,12.973,65.588,32.402,70.123,10.563,2.4653,21.229-3.352,26.257-15.642z" stroke="#000" stroke-linecap="butt" stroke-width="1px" fill="#bd5c7e"/><path stroke-linejoin="miter" d="m115.35,154.23c4.1774-2.3868,7.8137-5.6753,9.4808-12.246-5.442,3.5163-11.495,2.7524-17.776,0.39503,10.748-0.20618,16.8-3.6639,16.591-11.456-17.824-2.0089-18.667-11.696-20.385-20.147,4.8003,10.814,12.46,14.95,18.805,11.851,3.7678-2.8959,6.3867-7.179,2.7652-13.431-7.6998-13.293-17.213-20.966-50.959-25.282,40.062-13.838,64.312,16.912,93.623,15.406-9.792,0.25948-18.467-1.576-26.304-5.3668,9.6969-8.6398-2.7319-14.102-6.8792-17.94,9.2097,2.246,17.602,5.2809,16.196,17.776,4.9415-6.8706,6.9429-14.111,5.9255-21.727,3.9948,4.8218,6.4914,10.529,2.3702,20.147,6.7419-8.4669,14.776-12.41,24.887-9.0857-8.8216,2.5019-12.753,5.0037-11.456,7.5056,33.725-4.23,48.859,5.3107,60.045,17.776,8.8772,10.611,15.663,23.314,16.986,41.478,4.7217,4.8909,5.1271,8.7766,3.7927,11.536-1.5876,1.2894-2.2424,2.991-7.743-0.0798,1.8957,0.69814,4.3503,1.5081,4.3454,2.7652-28.896,62.138-110.96,38.104-134.31-9.8758z" stroke="#000" stroke-linecap="butt" stroke-width="1px" fill="#375062"/><path stroke-linejoin="miter" d="m253.63,193.85c-15.316-13.471-38.653-18.215-55.866-16.76-12.931,1.093-27.208,7.4552-45.251,25.698,9.1522,10.655,18.304,21.056,39.665,18.994,17.014-1.1084,34.283-8.0667,48.753-18.331,11.355,1.7167,23.218,1.653,12.699-9.6016z" stroke="#000" stroke-linecap="butt" stroke-width="1px" fill="#d8d8d8"/><path stroke-linejoin="miter" d="m120.11,156.42c12.597-3.6603,23.432-3.0659,35.302,1.9162,22.494,9.4418,8.7926,75.787-20.092,77.972,6.729-6.9445,8.0681-11.546,11.048-17.318-11.242,26.52-27.768,26.744-40.133,20.237,8.6455-1.1407,17.242-5.9905,23.932-12.416-15.404,14.047-27.188,16.696-40.782,5.0279-3.5382,0-7.3026-0.90506-10.841-0.90506,3.352-2.2346,6.9302-3.5642,10.282-5.7989,0.77319-18.631,15.071-24.664,31.844-27.374-3.352,0.37244-7.116,1.6742-10.743,2.3052,1.7541-5.8669,1.1891-5.3015,14.095-14.037-7.0889,5.1786-10.428,7.0764-15.642,10.615-7.4735-16.004-4.7612-31.01,11.732-40.223z" stroke="#000" stroke-linecap="butt" stroke-width="1px" fill="#d8d8d8"/><path stroke-linejoin="miter" d="m41.341,141.34s-52.942,48.572-38.547,71.508c23.971,38.194,106.15-16.201,106.15-16.201-0.85962-4.9051,0.74318-8.6035,6.8267-9.6857-11.721-1.5167-4.6702-9.3014,1.992-8.966-6.5194-2.6604-4.4405-6.3879,3.0524-7.3795-9.0839,0.80584-11.955-6.4374,2.9822-4.9451-10.117-1.7025-9.4018-6.5871,2.2354-10.624-3.294,0.57053-5.3568,0.81774-5.3568,0.81774s-38.784,3.8123-64.804,18.994c9.3044-12.023,55.468-4.0266,35.196-44.134-12.7-19.81-55.866-5.5866-55.866-5.5866" stroke="#000" stroke-linecap="butt" stroke-width="1px" fill="#375062"/><path stroke-linejoin="miter" d="m232.4,182.68c-9.2333,1.519-14.15-14.672-14.525-24.022-0.3338-8.3213,2.8545-22.74,11.173-22.346,9.4159,0.44551,16.907,19.395,10.202,26.375-7.3413,7.6422-6.0088,19.856-6.8502,19.994z" stroke="#020202" stroke-linecap="butt" stroke-width="1px" fill="#ffe44d"/><path stroke-linejoin="miter" d="m241.34,158.66c-2.351-2.5347-5.4872-2.2458-9.3226,4.545-5.8713,10.396-1.1184,15.538,3.736,14.449,2.3558-0.52809-1.7632-4.7358-1.3538-7.1152,0.77753-4.5196,10.059-8.5169,6.9404-11.879z" stroke="#398305" stroke-linecap="butt" stroke-width="1px" fill="#398305"/><path stroke-linejoin="miter" d="m241.42,160.28c-1.7949-1.5343-5.389,3.4996-6.8715,6.108-1.4105,2.4817-2.3979,7.913,0.58028,8.551,2.9225,0.62605,5.677-1.8008,7.8426-6.3779,3.2103-6.7853,0.40626-6.6077-1.5514-8.281z" stroke="#000" stroke-linecap="butt" stroke-width="1px" fill="#000"/><path fill="#aeaeae" d="m239.8,168.3c1.047,0.66855-0.11164,2.6235-0.83799,3.6313-0.57423,0.7967-1.7255,2.1218-2.514,1.5363-0.88845-0.65971,0.22927-2.2882,0.83799-3.2123,0.58398-0.88656,1.6192-2.5266,2.514-1.9553z"/><path stroke-linejoin="miter" d="m256.42,179.89c0.85498,0.42749,3.4461,8.6155,2.3288,11.036-1.1173,2.4208-4.4126,3.189-9.3218,2.9106,2.8323-2.9184,2.4847-1.5006,4.1607-4.8526-5.5203,9.0226-13.246,10.582-18.811,8.3491-6.8625-2.754-10.573-10.74-15.787-16.326,6.3315-2.6071,12.639-8.7741,19.838-8.5594,3.8543,0.11493,9.5168,1.155,10.33,5.2075,1.723,10.2,8.1934,14.859,7.2626,2.2346z" stroke="#000" stroke-linecap="butt" stroke-width="1px" fill="#d8d8d8"/><path stroke-linejoin="miter" d="m205.76,145.36s27.096,23.877,15.515,35.099c-6.4564,6.2562-25.943-7.3758-25.943-7.3758" stroke="#000" stroke-linecap="butt" stroke-width="1px" fill="#375062"/><path stroke-linejoin="miter" d="m253.93,187.42c-1.8522,0.10064-4.3593-6.6-5.1644-10.205-0.52482-2.3501-3.4515-2.9426-5.3137-4.6186,2.6674-3.9353,10.221-5.1732,13.83-1.8124,5.2167,4.858,3.2481,16.278-3.352,16.636z" stroke="#000" stroke-linecap="butt" stroke-width="1px" fill="#020202"/><path fill="#aeaeae" d="m254,173.01c2.7927-0.49125,4.0506,0.977,3.8072,3.4712-2.5427,0.16845-3.7688-1.0125-3.8072-3.4712z"/><path stroke-linejoin="miter" d="m236.31,123.18s-7.8586-24.648-17.862-27.877c-11.425-3.688-19.009,15.866-19.009,15.866" stroke="#000" stroke-linecap="butt" stroke-width="1px" fill="#375062"/><path stroke-linejoin="miter" d="m248.14,162.78c-7.3898-14.472-8.3399-26.969-11.716-26.721-2.2446-6.9131-3.8653-13.826-5.5304-20.739-0.39503,3.3578-0.79006,6.7155-1.1851,10.073-1.003-10.954-6.09-16.917-12.444-21.332,1.9777,2.7336,3.9099,5.4444,2.9627,6.7155-3.5569-4.9633-12.257-1.5541-20.537,3.5191,3.8353-0.46651,6.5447-0.79287,7.6985,0.8262-6.4826,2.1777-6.8909,9.3253-6.913,16.789,3.7708-7.2975,7.6095-14.343,13.431-14.024,3.461-0.0809,7.1035,4.5555,10.863,12.246-8.2158-0.40095-8.7123,6.5627-9.6514,12.268,1.5561-9.5728,5.0916-13.579,10.836-10.886,6.5748,11.803,9.647,28.287,22.184,31.264z" stroke="#000" stroke-linecap="butt" stroke-width="1px" fill="#020202"/><path stroke-linejoin="miter" d="m239.11,181.01c-24.115-11.106-50.986-8.6624-78.212-4.4693" stroke="#000" stroke-linecap="butt" stroke-width="1px" fill="none"/><path stroke-linejoin="miter" d="m238.14,185.74c-27.197,8.7544-55.059,12.854-84.68,14.369" stroke="#000" stroke-linecap="butt" stroke-width="1px" fill="none"/><path fill="#020202" d="m246.51,183.23c-2.0188,1.1076-4.4827,0.30159-3.7666-2.5111,2.2388-1.3648,4.7952,0.41586,3.7666,2.5111z"/><path d="m241.59,190.3c-2.0188,1.1076-4.4827,0.30159-3.7666-2.5111,2.2388-1.3648,4.7952,0.41586,3.7666,2.5111z" transform="matrix(0.80806708,0,0,0.80806708,46.018792,36.28451)" filter="url(#filter3659)" fill="#020202"/><path d="m241.59,190.3c-2.0188,1.1076-4.4827,0.30159-3.7666-2.5111,2.2388-1.3648,4.7952,0.41586,3.7666,2.5111z" transform="matrix(0.7416833,-0.32074644,0.32074644,0.7416833,9.0244859,125.35295)" filter="url(#filter3659-9)" fill="#020202"/><path stroke-linejoin="miter" d="m325.98,249.16c-22.554,9.9849-39.27,5.6921-52.793-5.0279,12.213,10.504,26.43,18.702,53.352,12.29,0.18622-2.1415-0.74488-5.121-0.55866-7.2626z" stroke="#000" stroke-linecap="butt" stroke-width="1px" fill="#824400"/><path stroke-linejoin="miter" d="m322.63,217.04c13.931,25.606,1.7201,26.98,0.55866,32.123-3.1301,13.862,3.3108,5.4746-4.7486,24.581,4.7486,0.65177,10.615,2.7002,15.363,3.352,3.6153-8.8947,4.192-18.296,3.352-27.933,0.55866,3.4451,0.27933,7.0298,0.419,10.754,9.9066-4.4671,18.274-11.276,16.341-23.883-6.2134-21.927-28.068-28.043-31.285-18.994z" stroke="#000" stroke-linecap="butt" stroke-width="1px" fill="#824400"/><path stroke-linejoin="miter" d="m400.22,264.9c-15.146,4.6775-35.605,7.139-40.791,20.13" stroke="#5c5c5c" stroke-linecap="butt" stroke-width="1px" fill="none"/><path stroke-linejoin="miter" d="m0,270.39c90.13-5.0279,225.14-4.6302,335.75,0.00006,9.501,0.39772,20.857,6.7039,24.581,15.084,2.6071-5.959,6.5815-8.9097,11.173-11.173,8.63-4.2542,18.994-5.5866,28.492-8.3799v34.078h-400v-29.609z" stroke="#938299" stroke-linecap="butt" stroke-width="1px" fill="#938299"/><path stroke-linejoin="miter" d="m320.13,190.95c-9.6299-11.507-26.297-5.4406-32.001,6.5945-12.492,0.48724-17.918,2.2364-20.387,8.1119,5.841-3.1873,18.818-4.273,19.547,6.6015-2.282,2.7291-5.3194,0.53691-8.3684-0.91254,5.1922,6.4091,8.6313,4.3387,9.4735,4.3222,10.906,19.332,48.519,13.243,31.736-24.718z" stroke="#000" stroke-linecap="butt" stroke-width="1px" fill="#824400"/><path stroke-linejoin="round" d="m318.26,190.55c3.1083-2.8204,9.2005-1.0525,11.967,1.1268,1.2852,0.43367-0.48911,2.5317-2.9357,3.9016,1.8438-0.65372,2.6821-3.3646,4.1208-2.7939,1.1832,0.46929,1.0102,1.3317,0.60775,2.8686-0.30323,1.1579-1.2921,1.5382-3.1652,1.9127,1.5832,0.076,3.335-1.469,3.512-0.9245,0.40311,1.2401,1.3956,11.119-0.39815,16.106-0.80005,2.2241-2.1018,4.8891-4.7196,4.6956-3.0578-0.22606-6.3757-3.4148-6.3219-6.4069,0.11971-6.6596-5.9085-15.953-2.6669-20.486h-0.00002z" stroke="#000" stroke-linecap="round" stroke-width="1px" fill="#ca8f33"/><path stroke-linejoin="round" d="m318.39,211.83c11.87-12.428-3.9739-23.993-10.388-13.856" stroke="#000" stroke-linecap="round" stroke-width="1px" fill="#824400"/><path d="m315.28,193.19c1.5929-1.3863-5.0556-7.3926-7.6153-5.4511-3.0442,2.309,6.2905,6.604,7.6153,5.4511z" stroke="#000" fill="#d8d8d8"/><path fill="#020202" d="m316.07,193.37c1.2429-0.86109-1.117-3.5659-2.2253-2.601-1.4939,1.3005,0.81609,3.5774,2.2253,2.601z"/><path stroke-linejoin="miter" d="m320.67,188.83c1.6559-2.868,4.8434-1.461,6.1404,0.96039-1.5141,0.44936-4.81-0.37848-6.1404-0.96039z" stroke="#000" stroke-linecap="butt" stroke-width="1px" fill="#020202"/><path stroke-linejoin="round" d="m306.02,187.4c-6.5046-2.4726-5.7298,1.5755,0.0609,5.721" stroke="#000" stroke-linecap="round" stroke-width="1px" fill="#824400"/><path stroke-linejoin="round" d="m322.58,192.58c-11.595,1.5802-17.216,4.1138-22.061,6.7712" stroke="#000" stroke-linecap="round" stroke-width="1px" fill="none"/><path stroke-linejoin="round" d="m323.52,195.07c-8.7776,1.6964-14.101,6.2395-17.947,11.935" stroke="#000" stroke-linecap="round" stroke-width="1px" fill="none"/><path stroke-linejoin="round" d="m308.05,187.01c0.33018-3.4556-1.2986-5.8422-4.6133-7.3088" stroke="#000" stroke-linecap="round" stroke-width="1px" fill="none"/><path fill="#ca8f33" d="m342.34,253.14c-0.75372-15.603-6.3326-23.36-11.21-33.405-3.9408-8.116,20.053,5.1846,20.289,17.039,0.16336,8.2022-7.0048,17.888-9.0798,16.366z"/><path stroke-linejoin="miter" d="m317.9,218.28c-3.9848,3.2518-2.9226,8.5132-0.67258,9.0798,6.8865,2.0854,4.8711,10.72,11.77,12.779,9.7646-0.15199,9.4747-6.5947,13.676-12.891,4.4304-0.74682,5.6196-8.0443,1.233-8.7435,1.3993-3.6495-5.2252-5.7596-5.3806-1.6814-4.0993,0.083-3.5678,1.8795-3.2508,4.2596-0.60388,1.711-2.2685,4.4119-3.475,4.5959-6.5679-3.5925-2.1398-7.226-7.3983-9.1918-1.7551-0.6216-5.008,0.57466-6.5016,1.7935z" stroke="#000" stroke-linecap="butt" stroke-width="1px" fill="#824400"/><path stroke-linejoin="miter" d="m354.29,226.2c-0.29599,1.851-2.1457,2.3928-3.435,2.2255-0.52685-0.98672-0.98468-1.5963-1.524-2.7819,2.9958,0.26338,3.3823-3.0674,3.7495-3.4592" stroke="#000" stroke-linecap="butt" stroke-width="1px" fill="none"/><path stroke-linejoin="miter" d="M362.01,300c2.23-41.57-45.82-28.08-102.75-32.49-173.98-2.17-223.58,0.83-259.82,2.32" stroke="#5c5c5c" stroke-linecap="butt" stroke-width="1px" fill="none"/></g><g id="layer2" display="none"><path fill="#FFF" d="M0,300,0,0,400,0,400,300,0,300z"/><path d="M0,300,0,0,400,0,400,300,0,300z" fill="#b9d0ff"/><path stroke-linejoin="miter" d="m313.95,217.04c-1.5931,0.11488-10.419,10.552-9.144,16.002,1.1977,5.1209,22.342,7.1824,25.337,5.1435,3.8304-2.608-7.0923-13.102-13.335-6.712,6.5742-4.2905,1.7644-14.767-2.8576-14.434z" stroke="#000" stroke-linecap="butt" stroke-width="1px" fill="#824400"/><path stroke-linejoin="miter" d="m267.04,55.307s-12.034,15.592-14.525,27.374c-2.6637,12.6-19.553,20.67-19.553,20.67-9.4972-6.7039-18.994-13.408-28.492-20.112,11.918-18.063,23.836-36.127,35.754-54.19,8.9386,8.7523,17.877,17.505,26.816,26.257z" stroke="#000" stroke-linecap="butt" stroke-width="1px" fill="#375062"/><path stroke-linejoin="miter" d="m223.29,56.553c-3.7262-12.578-8.9801-25.784,0.0503-34.957,8.9163-9.0579,30.369-19.233,52.291-12.684,11.345,3.3891,23.236,12.792,29.405,24.778-0.43052-2.2519-4.0537-5.956-5.6351-8.5467-1.6038-2.6275,8.6366,3.5306,12.033,7.9061,3.4894,4.4949,6.3126,9.7193,5.7883,16.089-0.35856,4.3564-3.6729,9.6585-8.8285,11.763,0.33573,1.5229,0.63082,7.3554-2.0687,9.0652-1.3999-2.5109-2.4454-7.5156-3.552-10.103,5.0361-8.1389,2.4846-22.068-4.6826-27.354,12.567,11.371,5.7198,27.655,4.4667,27.218-0.41285,2.6633-3.7458,4.2297-7.9107,5.0246,0.46774,4.3748-0.75676,6.6703-2.7476,8.1725-0.47528-0.97366-2.2581-7.4782-2.6935-8.5172-2.7267-0.35816-5.4839-1.2631-8.8093-3.1439,7.2458-5.1183,8.3587-19.447-0.83423-29.335,9.0253,9.9879,8.0668,23.934,0.6979,29.018-1.939,6.4712-5.287,8.7058-5.535,9.7041-0.62331-2.6782-0.48479-7.348-2.6749-9.192-3.6934,0.68445-16.759-1.285-21.126-16.01-1.7454-5.8856,1.7215,5.0911,1.7215,5.0911-14.718-2.3763-12.18,2.4509-29.356,6.0118h-0.00003z" stroke="#000" stroke-linecap="butt" stroke-width="1px" fill="#d8d8d8"/><path stroke-linejoin="miter" d="M-5.8253E-7,220.05c25.615,3.97,47.073,5.02,73.462-3.91,42.868-14.51,31.528-32.43,81.568-20.11,8.31-45.2-45.22-74.71-79.892-71.51-30.007,2.77-58.378-19.18-75.138-45.252" stroke="#020202" stroke-linecap="butt" stroke-width="1px" fill="#375062"/><path stroke-linejoin="miter" d="m344.68,225.44s4.0144-6.0315,9.7746-5.4445c3.019,0.30768,5.6078,4.5725,4.9879,10.088,2.3851-2.7562,7.7803-4.9341,9.258-0.53677,0.84981,2.529-6.7056,18.349-14.879,14.536-0.78771-0.36747-2.7022-10.466-9.1413-18.644z" stroke="#000" stroke-linecap="butt" stroke-width="1px" fill="#824400"/><path stroke-linejoin="round" d="m309.76,183.63c-0.57076-4.099-2.8888-4.2543-5.7876-3.6339" stroke="#000" stroke-linecap="round" stroke-width="1px" fill="none"/><path stroke-linejoin="round" d="m287.47,195.01c1.4506-7.498-5.2173-13.195-10.475-13.28" stroke="#000" stroke-linecap="round" stroke-width="1px" fill="none"/><path stroke-linejoin="round" d="m284.79,198.14c0.49917-10.331-6.5922-11.277-12.828-11.808" stroke="#000" stroke-linecap="round" stroke-width="1px" fill="none"/><path stroke-linejoin="miter" d="m299.46,221.27c-14.553,10.986-37.298-4.7305-33.596-13.718,7.5252-18.268,46.785,3.762,33.596,13.718z" stroke="#000" stroke-linecap="butt" stroke-width="1px" fill="#c87f7f"/><path stroke-linejoin="miter" d="M139.66,106.15c-12.32-37.061-25.53-46.318-49.716-42.754,3.4477,15.428-0.32843,35.82,16.76,49.453,8.4794,6.7647,27.933,5.5866,32.961-6.7039z" stroke="#000" stroke-linecap="butt" stroke-width="1px" fill="#bd5c7e"/><path stroke-linejoin="miter" d="m122.05,145.29c4.1774-2.3868,7.8137-5.6753,9.4808-12.246-5.442,3.5163-11.495,2.7524-17.776,0.39503,10.748-0.20618,16.8-3.6639,16.591-11.456-15.107,7.5-21.427,3.5022-23.178-5.0628,4.8003,10.814,12.46,2.6592,18.805-0.43955,3.7678-2.8959,6.3867-11.09,4.4412-15.107-6.6954-13.826-0.45305-36.702-40.345-38.69,47.324-11.603,66.547,23.057,94.74,23.227-18.172-0.85784-27.405-9.9559-35.242-13.747,9.6969-8.6398,0.0614-16.895-4.0859-20.733,9.2097,2.246,17.602,5.2809,16.196,17.776,4.9415-6.8706,6.9429-14.111,5.9255-21.727,3.9948,4.8218,2.0221,31.758,10.75,30.761,6.7419-8.4669,1.9272-9.6164,11.479-19.7-0.44174,6.4125-0.46272,10.032-1.4,17.561,9.1438-4.23,39.362,7.5454,50.548,20.011,8.8772,10.611,15.663,26.666,16.986,44.83,4.7217,4.8909,5.1271,8.7766,3.7927,11.536-1.5876,1.2894-2.2424,2.991-7.743-0.0798,1.8957,0.69814,4.3503,1.5081,4.3454,2.7652-16.71,72.9-105.4,83.108-134.31-9.8758z" stroke="#000" stroke-linecap="butt" stroke-width="1px" fill="#375062"/><path fill="#767676" d="m87.967,193.6c-21.307,13.933-46.649,21.144-73.091,26.52,23.357,0.13674,43.891,4.2266,83.763-18.758-6.1544,2.2819-11.334,2.7352-10.673-7.7618z"/><path stroke-linejoin="miter" d="m260.34,184.92c-15.316-13.471-38.894-19.977-55.866-16.76-14.607,2.769-30.627,16.07-34.637,25.698-1.4682,3.525-5.0377,20.643,29.05,18.994,17.014-1.1084,34.283-8.0667,48.753-18.331,11.355,1.7167,23.218,1.653,12.699-9.6016z" stroke="#000" stroke-linecap="butt" stroke-width="1px" fill="#d8d8d8"/><path stroke-linejoin="miter" d="m243.02,114.25s-7.8586-24.648-17.862-27.877c-11.425-3.688-19.009,15.866-19.009,15.866" stroke="#000" stroke-linecap="butt" stroke-width="1px" fill="#375062"/><path stroke-linejoin="miter" d="m155.99,62.295c-3.7262-12.578-4.548-24.767-0.50334-36.987,4.6619-14.086,30.31-17.927,52.845-10.654,11.268,3.6367,26.927,17.037,33.095,29.022-0.43052-2.2519-4.6961-7.1242-6.3732-9.6539s8.157,2.6309,12.402,5.8762c6.5141,4.9795,7.9607,13.057,7.2646,19.411-0.17402,1.5884,0.0178,3.5688-2.1852,8.4417,0.33573,1.5229,0.26175,7.3554-2.4377,9.0652-1.7189-2.4133-1.6469-5.2939-0.96844-8.4421-0.0939-10.533-7.1954-16.509-12.433-20.342,12.044,8.9309,12.542,17.047,12.217,20.944-0.16606,1.9937-1.9004,7.9204-7.3571,10.192,0.46774,4.3748-1.864,6.3012-3.8548,7.8034-1.1594-1.5002-0.056-6.8603-0.66363-6.6718-3.2054,0.99397-3.085,0.39769-6.4104-0.74495,4.0455-9.797,1.898-21.112-8.7693-26.567,14.907,8.5175,12.415,26.169,3.6505,31.602,1.516,3.0163,0.1897,5.8126-1.2907,8.0432-0.62331-2.6782-1.7765-4.2108-3.9666-6.0549-3.6934,0.68445-16.759-1.285-21.126-16.01-1.7454-5.8856,1.7215,5.0911,1.7215,5.0911-14.72-2.374-27.69-16.923-44.86-13.363z" stroke="#000" stroke-linecap="butt" stroke-width="1px" fill="#d8d8d8"/><path stroke-linejoin="miter" d="m79.863,191.98s8.1811-9.3066,14.312-7.7935c22.153,5.4672,35.936,2.8637,45.665-2.6375,32.243-18.231,23.863-108.18,42.461-115-10.874-2.8392-15.073-9.7727,0.33457-10.407-7.3212-2.4957-12.781-6.8853-6.4735-10.144-6.7203,0.67844-15.292,0.3827-11.016-7.3843-6.9678,3.4929-6.9334-2.8161,2.3019-11.615-11.147,6.2155-12.124-1.737-1.976-12.236-26.202,15.127-30.257,30.291-40.201,59.437-8.335,27.312-10.61,46.416-10.334,75.765-0.36424-5.802,0.22908-30.623,1.6181-35.349,0.44483-1.5135,0.12073,1.8938-1.1102,6.77-2.1696,3.1161-6.1848,11.221-7.0206,18.868,1.9286-10.915,5.0895-15.247,6.9971-18.72,0.9689-3.943,0.68442-6.5584,0.88487-7.0005-10.227-9.9365-23.128-7.3194-34.47-0.70983-22.537,14.48-26.523,44.163-26.523,44.163" stroke="#000" stroke-linecap="butt" stroke-width="1px" fill="#375062"/><path stroke-linejoin="miter" d="m239.11,173.74c-9.2333,1.519-14.15-14.672-14.525-24.022-0.3338-8.3213,2.8545-22.74,11.173-22.346,9.4159,0.44551,16.907,19.395,10.202,26.375-7.3413,7.6422-6.0088,19.856-6.8502,19.994z" stroke="#020202" stroke-linecap="butt" stroke-width="1px" fill="#ffe44d"/><path stroke-linejoin="miter" d="m248.04,149.72c-2.351-2.5347-5.4872-2.2458-9.3226,4.545-5.8713,10.396-1.1184,15.538,3.736,14.449,2.3558-0.52809-1.7632-4.7358-1.3538-7.1152,0.77753-4.5196,10.059-8.5169,6.9404-11.879z" stroke="#398305" stroke-linecap="butt" stroke-width="1px" fill="#398305"/><path stroke-linejoin="miter" d="m248.12,151.34c-1.7949-1.5343-5.389,3.4996-6.8715,6.108-1.4105,2.4817-2.3979,7.913,0.58028,8.551,2.9225,0.62605,5.677-1.8008,7.8426-6.3779,3.2103-6.7853,0.40626-6.6077-1.5514-8.281z" stroke="#000" stroke-linecap="butt" stroke-width="1px" fill="#000"/><path fill="#aeaeae" d="m246.51,159.36c1.047,0.66855-0.11164,2.6235-0.83799,3.6313-0.57423,0.7967-1.7255,2.1218-2.514,1.5363-0.88845-0.65971,0.22927-2.2882,0.83799-3.2123,0.58398-0.88656,1.6192-2.5266,2.514-1.9553z"/><path stroke-linejoin="miter" d="m263.13,170.95c0.85498,0.42749,3.4461,8.6155,2.3288,11.036-1.1173,2.4208-4.4126,3.189-9.3218,2.9106,2.8323-2.9184,2.4847-1.5006,4.1607-4.8526-5.5203,9.0226-13.246,10.582-18.811,8.3491-6.8625-2.754-10.573-10.74-15.787-16.326,6.3315-2.6071,12.639-8.7741,19.838-8.5594,3.8543,0.11493,9.5168,1.155,10.33,5.2075,1.723,10.2,8.1934,14.859,7.2626,2.2346z" stroke="#000" stroke-linecap="butt" stroke-width="1px" fill="#d8d8d8"/><path stroke-linejoin="miter" d="m212.46,136.42s27.096,23.877,15.515,35.099c-6.4564,6.2562-25.943-7.3758-25.943-7.3758" stroke="#000" stroke-linecap="butt" stroke-width="1px" fill="#375062"/><path stroke-linejoin="miter" d="m260.63,178.49c-1.8522,0.10064-4.3593-6.6-5.1644-10.205-0.52482-2.3501-3.4515-2.9426-5.3137-4.6186,2.6674-3.9353,10.221-5.1732,13.83-1.8124,5.2167,4.858,3.2481,16.278-3.352,16.636z" stroke="#000" stroke-linecap="butt" stroke-width="1px" fill="#020202"/><path fill="#aeaeae" d="m260.7,164.07c2.7927-0.49125,4.0506,0.977,3.8072,3.4712-2.5427,0.16845-3.7688-1.0125-3.8072-3.4712z"/><path stroke-linejoin="miter" d="m254.85,153.84c-7.3898-14.472-8.3399-26.969-11.716-26.721-2.2446-6.9131-3.8653-13.826-5.5304-20.739-0.39503,3.3578-0.79006,6.7155-1.1851,10.073-1.003-10.954-6.09-16.917-12.444-21.332,1.9777,2.7336,3.9099,5.4444,2.9627,6.7155-3.5569-4.9633-12.257-1.5541-20.537,3.5191,3.8353-0.46651,6.5447-0.79287,7.6985,0.8262-6.4826,2.1777-6.8909,9.3253-6.913,16.789,3.7708-7.2975,7.6095-14.343,13.431-14.024,3.461-0.0809,7.1035,4.5555,10.863,12.246-8.2158-0.40095-8.7123,6.5627-9.6514,12.268,1.5561-9.5728,5.0916-13.579,10.836-10.886,6.5748,11.803,9.647,28.287,22.184,31.264z" stroke="#000" stroke-linecap="butt" stroke-width="1px" fill="#020202"/><path stroke-linejoin="miter" d="m240.75,171.92c-26.332-3.3887-51.244,6.9769-75.971,19.118" stroke="#000" stroke-linecap="butt" stroke-width="1px" fill="none"/><path stroke-linejoin="miter" d="m239.03,177.36c-25.784,12.309-52.849,20.093-82.002,25.551" stroke="#000" stroke-linecap="butt" stroke-width="1px" fill="none"/><path fill="#020202" d="m253.21,174.3c-2.0188,1.1076-4.4827,0.30159-3.7666-2.5111,2.2388-1.3648,4.7952,0.41586,3.7666,2.5111z"/><path d="m241.59,190.3c-2.0188,1.1076-4.4827,0.30159-3.7666-2.5111,2.2388-1.3648,4.7952,0.41586,3.7666,2.5111z" transform="matrix(0.80806708,0,0,0.80806708,52.722703,27.345963)" filter="url(#filter3659-7)" fill="#020202"/><path d="m241.59,190.3c-2.0188,1.1076-4.4827,0.30159-3.7666-2.5111,2.2388-1.3648,4.7952,0.41586,3.7666,2.5111z" transform="matrix(0.7416833,-0.32074644,0.32074644,0.7416833,15.728396,116.4144)" filter="url(#filter3659-9-1)" fill="#020202"/><path stroke-linejoin="miter" d="m318.71,243.34c-17.901,2.7452-37.254-10.136-50.369-4.5431,20.94-1.1322,28.854,9.7331,48.019,9.8664,0.18622-2.1415,2.1641-3.1817,2.3503-5.3233z" stroke="#000" stroke-linecap="butt" stroke-width="1px" fill="#824400"/><path stroke-linejoin="miter" d="m313.9,214.86c-8.4543,10.064,9.961,13.671,9.1787,17.793-2.6774,5.2406-5.9256,6.9471-9.1253,13.15-0.93801,0.99003-1.8996,3.2889-2.4798,4.1361-0.29008,0.42357-0.87016,1.7366-3.0383,5.1353,1.1316-1.8169,2.9501-4.6297,2.5956-4.6882-0.93458-0.0185-3.5033-0.7706-3.9874-0.39745-5.3301,4.109-14.112,10.457-9.1206,13.048,12.231-4.811,14.673-0.11256,20.073-1.6886s7.2128-5.5477,8.9745-7.821c12.581-0.82892,22.336-6.6186,23.305-18.946,1.527-19.434-30.594-26.604-36.376-19.722z" stroke="#000" stroke-linecap="butt" stroke-width="1px" fill="#824400"/><path stroke-linejoin="miter" d="m0,270.39c90.13-5.0279,129.14-4.6302,239.75,0.00006,9.501,0.39772,20.857,6.7039,24.581,15.084,2.6071-5.959,6.1184-9.5273,10.71-11.791,8.63-4.2542,115.46-4.969,124.95-7.7623v34.078h-400v-29.609z" stroke="#938299" stroke-linecap="butt" stroke-width="1px" fill="#938299"/><path stroke-linejoin="miter" d="m400,264.9c-19.925,3.5739-114.28,5.4785-120.22,7.1019-7.2851,1.9936-13.759,6.5328-16.351,13.029" stroke="#5c5c5c" stroke-linecap="butt" stroke-width="1px" fill="none"/><path stroke-linejoin="miter" d="m316.69,186.48c-10.784-10.433-26.723-2.6512-31.133,9.9161-12.372,1.7954-17.585,4.1042-19.423,10.206,5.4744-3.7826,18.265-6.2239,20.132,4.514-1.9831,2.9535-5.2336,1.0921-8.418-0.0294,5.836,5.8289,9.0389,3.409,9.8748,3.3042,12.874,18.081,49.641,8.0783,28.967-27.911z" stroke="#000" stroke-linecap="butt" stroke-width="1px" fill="#824400"/><path stroke-linejoin="round" d="m314.79,186.28c2.7952-3.131,9.0393-2.0121,12.019-0.13509,1.3236,0.29641-0.22076,2.569-2.5101,4.1881,1.765-0.84358,2.3142-3.6274,3.8049-3.2109,1.2259,0.34254,1.1444,1.2183,0.90539,2.789-0.18005,1.1833-1.1235,1.6653-2.9471,2.2343,1.5825-0.0905,3.1625-1.8108,3.3956-1.2879,0.531,1.191,2.5547,10.912,1.2941,16.059-0.56226,2.2958-1.5771,5.0826-4.2008,5.1649-3.0646,0.096-6.6988-2.727-6.9593-5.7082-0.57976-6.6354-7.5499-15.245-4.8018-20.093h-0.00002z" stroke="#000" stroke-linecap="round" stroke-width="1px" fill="#ca8f33"/><path stroke-linejoin="round" d="m317.16,207.43c10.5-13.605-6.4696-23.443-11.785-12.69" stroke="#000" stroke-linecap="round" stroke-width="1px" fill="#824400"/><path d="m312.1,189.22c1.4387-1.5458-5.8034-6.8213-8.1452-4.6219-2.7851,2.6157,6.9487,5.9075,8.1452,4.6219z" stroke="#000" fill="#d8d8d8"/><path fill="#020202" d="m312.9,189.32c1.1457-0.98676-1.485-3.429-2.4859-2.3532-1.3492,1.4501,1.187,3.472,2.4859,2.3532z"/><path stroke-linejoin="miter" d="m317,184.31c1.3458-3.026,4.6633-1.9612,6.2072,0.31078-1.4586,0.60575-4.8232,0.12833-6.2072-0.31078z" stroke="#000" stroke-linecap="butt" stroke-width="1px" fill="#020202"/><path stroke-linejoin="round" d="m302.29,184.43c-6.7281-1.7764-5.5329,2.168,0.66083,5.683" stroke="#000" stroke-linecap="round" stroke-width="1px" fill="#824400"/><path stroke-linejoin="round" d="m319.3,187.85c-11.365,2.7881-14.975,5.448-18.311,11.846" stroke="#000" stroke-linecap="round" stroke-width="1px" fill="none"/><path stroke-linejoin="round" d="m320.49,190.23c-8.5511,2.6081-13.491,4.771-20.605,12.537" stroke="#000" stroke-linecap="round" stroke-width="1px" fill="none"/><path stroke-linejoin="round" d="m304.26,183.83c-0.0342-3.4711-4.2606-3.5817-7.5654-2.7957" stroke="#000" stroke-linecap="round" stroke-width="1px" fill="none"/><path fill="#ca8f33" d="m334.04,246.58c2.5217-15.796,2.2413-20.374-4.8514-29.262-5.6275-7.052,18.223,2.7762,18.074,17.231-0.0853,8.2034-8.7388,14.323-13.222,12.031z"/><path stroke-linejoin="miter" d="m326.09,222.35c5.246-1.1059,15.901-4.0343,23.132-7.7056,4.4304-0.74682,5.6196-8.0443,1.233-8.7435,1.3993-3.6495-5.2252-5.7596-5.3806-1.6814-4.0993,0.083-3.5678,1.8795-3.2508,4.2596-6.0816-0.12157-22.526,2.4412-27.799,5.9245h-0.00004c-4.3379,3.9582-1.4701,8.4563,0.88147,10.963" stroke="#000" stroke-linecap="butt" stroke-width="1px" fill="#824400"/><path stroke-linejoin="miter" d="m266.01,300c2.2265-41.571-45.82-28.081-102.75-32.491-173.98-2.1736-124.32,2.327-163.56,2.0235" stroke="#5c5c5c" stroke-linecap="butt" stroke-width="1px" fill="none"/><path fill="#ca8f33" d="m364.34,233.43c-4.1641-1.7597-8.3517,5.5982-5.6838,7.8032,1.9623,1.6218,8.2219-6.7307,5.6838-7.8032z"/></g><g id="layer3" display="none"><path fill="#FFF" d="M0,300,0,0,400,0,400,300,0,300z"/><path d="M0,300,0,0,400,0,400,300,0,300z" fill="#b9d0ff"/><path stroke-linejoin="miter" d="m340.89,226.64c0.69536-1.0553,0.59183-2.203,0.60604-4.2422-1.1666-2.3636,2.465-4.5921,5.5755-1.9393,1.0751-0.2831,3.1155,2.1667,2.0605,4.2422,2.07,3.3617-1.536,5.5552-3.3938,5.3331l-2.7878,1.2121-2.0605-4.6059z" stroke="#000" stroke-linecap="butt" stroke-width="1px" fill="#824400"/><path stroke-linejoin="miter" d="m106.15,163.69c-24.478,37.897-18.628,74.569,29.609,89.944,24.271,7.7361-54.506,35.775-75.419,21.229-25.713-17.885-28.175-66.991-11.173-93.296,10.806-16.719,67.784-34.599,56.983-17.877z" stroke="#000" stroke-linecap="butt" stroke-width="1px" fill="#375062"/><path stroke-linejoin="miter" d="m141.54,271.37c-0.72908-9.7149-3.8979-34.466,19.696-37.102l7.3289-5.7257-1.8322,6.4128c19.889,21.11-17.221,40.895-21.071,35.957" stroke="#000" stroke-linecap="butt" stroke-width="1px" fill="#d8d8d8"/><path stroke-linejoin="miter" d="m134.67,270c1.764-14.738-3.7644-37.06,11.909-37.331l5.9547-5.4966-0.68708,5.7257c22.348,18.198-0.0971,36.869-5.9547,38.935" stroke="#000" stroke-linecap="butt" stroke-width="1px" fill="#d8d8d8"/><path stroke-linejoin="miter" d="m120.47,270.23c3.6952-10.874-8.6338-25.254,12.596-32.293l5.4967-5.7257,0.22902,6.1837c20.217,12.762,2.6575,30.402,1.3742,32.98" stroke="#000" stroke-linecap="butt" stroke-width="1px" fill="#d8d8d8"/><path stroke-linejoin="miter" d="m111.31,269.54c0.7293-9.5891-1.0321-21.513,8.9321-22.445l5.0386-5.9547-0.68708,6.4128c11.871,5.37,6.0559,17.54,1.1451,22.445" stroke="#000" stroke-linecap="butt" stroke-width="1px" fill="#d8d8d8"/><path stroke-linejoin="miter" d="m88.634,269.54c-1.7351-10.328,0.66802-23.025,13.971-22.903l5.7257-5.7257-0.68708,6.1837c12.765,1.4476,12.314,14.835,6.4128,22.445" stroke="#000" stroke-linecap="butt" stroke-width="1px" fill="#d8d8d8"/><path stroke-linejoin="miter" d="m319.02,217.83c-1.5931,0.11488-5.1875,11.344-3.9126,16.795,1.1977,5.1209,13.623-0.58539,16.618-2.6243-3.2586-6.744-2.752-12.49-12.705-14.17z" stroke="#000" stroke-linecap="butt" stroke-width="1px" fill="#824400"/><path stroke-linejoin="miter" d="m0,201.06c25.615,3.9717,56.726-5.8389,81.283-18.994,24.997-13.4,28.177-22.94,78.217-10.62,8.31-45.2-43.54-71.36-78.217-68.16-30.006,2.77-58.378,2.61-81.283-13.966" stroke="#020202" stroke-linecap="butt" stroke-width="1px" fill="#375062"/><path stroke-linejoin="round" d="m313.84,187.12c-0.0918-4.1375-2.3762-4.5605-5.3274-4.2803" stroke="#000" stroke-linecap="round" stroke-width="1px" fill="none"/><path stroke-linejoin="round" d="m290.38,195.83c2.31-7.2793-1.2374-10.601-6.45-11.295" stroke="#000" stroke-linecap="round" stroke-width="1px" fill="none"/><path stroke-linejoin="round" d="m287.35,198.63c1.6934-10.204-3.5156-7.4544-9.6474-8.7051" stroke="#000" stroke-linecap="round" stroke-width="1px" fill="none"/><path stroke-linejoin="miter" d="m299.24,223.31c-15.729,9.2248-36.499-9.022-31.779-17.52,9.592-17.273,46.034,9.1597,31.779,17.52z" stroke="#000" stroke-linecap="butt" stroke-width="1px" fill="#c87f7f"/><path fill="#767676" d="M84.615,163.43c-21.307,13.93-58.173,10.53-84.615,15.91,0.50543,6.7723,0.42248,8.3429,0,18.521,38.684,3.4738,78.145-14.054,101.43-29.457-6.1544,2.2819-17.479,5.5285-16.818-4.9685z"/><path stroke-linejoin="miter" d="m48.603,112.29s56.442-46.418,78.771-10.615c20.377,32.674-12.792,45.529-35.196,56.425-59.422,28.898-33.957,106.08-15.084,116.76,16.788,9.5009-50.265,24.01-57.542,6.1452-41.975-103.05,13.966-145.81,13.966-145.81" stroke="#000" stroke-linecap="butt" stroke-width="1px" fill="#375062"/><path stroke-linejoin="miter" d="m67.039,270.95c1.9278-11.59,6.2867-19.29,15.642-18.994l7.5751-7.3354-0.87114,7.3354c12.678,2.629,11.896,12.643,5.0173,19.883" stroke="#000" stroke-linecap="butt" stroke-width="1px" fill="#d8d8d8"/><path stroke-linejoin="miter" d="M152.69,94.531c-14.59-35.204-23.06-38.08-47.66-42.337,3.4477,15.428,3.396,64.666,20.67,78.062,5.8038,4.5006,21.964-23.434,26.992-35.725z" stroke="#000" stroke-linecap="butt" stroke-width="1px" fill="#bd5c7e"/><path stroke-linejoin="miter" d="m137.35,139.14c-2.8559,0.66085-14.191-3.7711-23.986-2.5453,21.418-4.3369,24.598-20.013,25.432-23.298-7.2962,1.6621-13.041-1.8831-14.377-8.258,4.1956,1.7597,9.8006,9.2523,18.446-0.63959-13.449-3.9613-11.791-12.504-7.1084-19.279,1.4009,5.2516,1.0257,13.476,10.152,10.995,2.5316-1.9688,5.5653-4.4215,4.1322-6.763-7.1938-11.753-5.405-30.73-45.708-37.04,45.47-7.2769,72.529,20.171,79.089,19.724-1.2907-0.008-3.5321-0.87791-6.1152-2.5054,1.3529-8.9489-4.0334-9.9029-8.7987-12.814,3.0525-0.83262,17.251-1.2302,15.887,11.287,4.1349-5.1642,5.5571-7.5021,14.579-11.838-10.098,6.3101-7.2118,10.577-4.7018,12.219,1.8384-6.0775,8.076-9.8984,16.115-8.2658-4.5526,1.5613-7.0281,2.9994-4.4904,5.509,15.075,1.0425,29.852,9.7024,40.349,21.556,8.8772,10.611,15.663,26.666,16.986,44.83,4.7217,4.8909,5.1271,8.7766,3.7927,11.536-1.5876,1.2894-2.2424,2.991-7.743-0.0798,1.8957,0.69814,4.3503,1.5081,4.3454,2.7652-16.71,72.9-97.368,85.89-126.28-7.0945z" stroke="#000" stroke-linecap="butt" stroke-width="1px" fill="#375062"/><path stroke-linejoin="miter" d="m267.6,175.98c-15.316-13.471-38.894-19.977-55.866-16.76-14.607,2.769-30.627,16.07-34.637,25.698-1.4682,3.525-4.461,21.796,29.627,20.148,17.014-1.1084,33.706-9.22,48.177-19.485,11.355,1.7167,23.218,1.653,12.699-9.6016z" stroke="#000" stroke-linecap="butt" stroke-width="1px" fill="#d8d8d8"/><path stroke-linejoin="miter" d="m250.28,105.31s-7.8586-24.648-17.862-27.877c-11.425-3.688-19.009,15.866-19.009,15.866" stroke="#000" stroke-linecap="butt" stroke-width="1px" fill="#375062"/><path stroke-linejoin="miter" d="m246.37,164.8c-9.2333,1.519-14.15-14.672-14.525-24.022-0.3338-8.3213,2.8545-22.74,11.173-22.346,9.4159,0.44551,16.907,19.395,10.202,26.375-7.3413,7.6422-6.0088,19.856-6.8502,19.994z" stroke="#020202" stroke-linecap="butt" stroke-width="1px" fill="#ffe44d"/><path stroke-linejoin="miter" d="m255.31,140.78c-2.351-2.5347-5.4872-2.2458-9.3226,4.545-5.8713,10.396-1.1184,15.538,3.736,14.449,2.3558-0.52809-1.7632-4.7358-1.3538-7.1152,0.77753-4.5196,10.059-8.5169,6.9404-11.879z" stroke="#398305" stroke-linecap="butt" stroke-width="1px" fill="#398305"/><path stroke-linejoin="miter" d="m255.38,142.4c-1.7949-1.5343-5.389,3.4996-6.8715,6.108-1.4105,2.4817-2.3979,7.913,0.58028,8.551,2.9225,0.62605,5.677-1.8008,7.8426-6.3779,3.2103-6.7853,0.40626-6.6077-1.5514-8.281z" stroke="#000" stroke-linecap="butt" stroke-width="1px" fill="#000"/><path fill="#aeaeae" d="m253.77,150.42c1.047,0.66855-0.11164,2.6235-0.83799,3.6313-0.57423,0.7967-1.7255,2.1218-2.514,1.5363-0.88845-0.65971,0.22927-2.2882,0.83799-3.2123,0.58398-0.88656,1.6192-2.5266,2.514-1.9553z"/><path stroke-linejoin="miter" d="m270.39,162.01c0.85498,0.42749,3.4461,8.6155,2.3288,11.036-1.1173,2.4208-4.4126,3.189-9.3218,2.9106,2.8323-2.9184,2.4847-1.5006,4.1607-4.8526-5.5203,9.0226-13.246,10.582-18.811,8.3491-6.8625-2.754-10.573-10.74-15.787-16.326,6.3315-2.6071,12.639-8.7741,19.838-8.5594,3.8543,0.11493,9.5168,1.155,10.33,5.2075,1.723,10.2,8.1934,14.859,7.2626,2.2346z" stroke="#000" stroke-linecap="butt" stroke-width="1px" fill="#d8d8d8"/><path stroke-linejoin="miter" d="m219.73,127.48s27.096,23.877,15.515,35.099c-6.4564,6.2562-25.943-7.3758-25.943-7.3758" stroke="#000" stroke-linecap="butt" stroke-width="1px" fill="#375062"/><path stroke-linejoin="miter" d="m267.9,169.55c-1.8522,0.10064-4.3593-6.6-5.1644-10.205-0.52482-2.3501-3.4515-2.9426-5.3137-4.6186,2.6674-3.9353,10.221-5.1732,13.83-1.8124,5.2167,4.858,3.2481,16.278-3.352,16.636z" stroke="#000" stroke-linecap="butt" stroke-width="1px" fill="#020202"/><path fill="#aeaeae" d="m267.97,155.13c2.7927-0.49125,4.0506,0.977,3.8072,3.4712-2.5427,0.16845-3.7688-1.0125-3.8072-3.4712z"/><path stroke-linejoin="miter" d="m262.11,144.91c-7.3898-14.472-8.3399-26.969-11.716-26.721-2.2446-6.9131-3.8653-13.826-5.5304-20.739-0.39503,3.3578-0.79006,6.7155-1.1851,10.073-1.003-10.954-6.09-16.917-12.444-21.332,1.9777,2.7336,3.9099,5.4444,2.9627,6.7155-3.5569-4.9633-12.257-1.5541-20.537,3.5191,3.8353-0.46651,6.5447-0.79287,7.6985,0.8262-6.4826,2.1777-6.8909,9.3253-6.913,16.789,3.7708-7.2975,7.6095-14.343,13.431-14.024,3.461-0.0809,7.1035,4.5555,10.863,12.246-8.2158-0.40095-8.7123,6.5627-9.6514,12.268,1.5561-9.5728,5.0916-13.579,10.836-10.886,6.5748,11.803,9.647,28.287,22.184,31.264z" stroke="#000" stroke-linecap="butt" stroke-width="1px" fill="#020202"/><path stroke-linejoin="miter" d="m250.8,161.31c-26.332-3.3887-51.244-13.135-75.971-0.99365" stroke="#000" stroke-linecap="butt" stroke-width="1px" fill="none"/><path stroke-linejoin="miter" d="m250.21,166.75c-25.784,12.309-43.911,1.0984-73.064,6.5562" stroke="#000" stroke-linecap="butt" stroke-width="1px" fill="none"/><path stroke-linejoin="miter" d="m319.66,243.19c-18.377,6.5499-29.803,8.0947-48.784-2.7993,11.975,12.888,33.625,13.858,49.921,6.6958,0.18622-2.1415-1.3235-1.755-1.1373-3.8965z" stroke="#000" stroke-linecap="butt" stroke-width="1px" fill="#824400"/><path stroke-linejoin="miter" d="m347.31,225.56c-0.29599,1.851-2.1457,2.3928-3.435,2.2255-0.62361-0.7932-0.83954-0.77385-1.7175-1.6207,2.9958,0.26338,3.5758-4.2286,3.943-4.6203" stroke="#000" stroke-linecap="butt" stroke-width="1px" fill="none"/><path stroke-linejoin="miter" d="m339.14,248.55c-5.1297,3.5794-6.0844,10.828-10.929,16.982l13.619,1.5133c1.5052-8.6076,8.4299-12.13,8.2389-19.841l-10.929,1.3451z" stroke="#000" stroke-linecap="butt" stroke-width="1px" fill="#824400"/><path stroke-linejoin="miter" d="m313.9,214.86c-7.6893,10.66,9.961,13.671,9.1787,17.793-3.1212,4.1362-5.9429,6.4129-5.3207,9.8211,1.557,8.5277,13.914,13.964,23.322,12.956,12.453-1.3342,10.781-14.52,9.196-20.849-1.8439-7.3645-27.363-32.216-36.376-19.722z" stroke="#000" stroke-linecap="butt" stroke-width="1px" fill="#824400"/><path stroke-linejoin="miter" d="m326.36,235.1c-6.1175-0.43458-10.792,3.471-8.1822,9.6268,2.6492,6.2499,9.135,5.2006,14.235,5.674-7.2944,0.3183-12.819-2.1405-13.788-1.8496-1.0518,0.31605-0.0215,17.119,2.2426,18.416,1.1728,0.67193,7.9558-4.9912,9.3591-11.354-2.5239,0.0104-4.2403-0.46367-5.9476-0.9432,1.2214,0.50934,15.422,3.6061,16.036-4.2692,0.49361-6.3346-4.9088-6.6441-8.5752-9.2478" stroke="#000" stroke-linecap="butt" stroke-width="1px" fill="#824400"/><path stroke-linejoin="miter" d="m0,270.39c56.238-0.41346,66.013-1.1296,145.75,0.00006,9.5084,0.13443,20.857,6.7039,24.581,15.084,2.6071-5.959,7.3637-9.6328,12.006-11.791,27.55-12.8,119.78-12.48,217.66-13.2v39.521h-400v-29.609z" stroke="#938299" stroke-linecap="butt" stroke-width="1px" fill="#938299"/><path stroke-linejoin="miter" d="m400,260.4c-62.23,2.2238-183.96-2.8938-214.22,11.602-6.8116,3.2632-13.122,6.5328-15.715,13.029" stroke="#5c5c5c" stroke-linecap="butt" stroke-width="1px" fill="none"/><path stroke-linejoin="miter" d="m320.39,190.75c-9.5021-11.612-26.235-5.7309-32.072,6.2405-12.497,0.34917-17.942,2.0382-20.475,7.8861,5.8759-3.1226,18.864-4.0648,19.473,6.8171-2.3121,2.7037-5.325,0.4781-8.3578-1.005,5.121,6.4661,8.5828,4.4338,9.4252,4.4266,10.692,19.451,48.37,13.778,32.007-24.365z" stroke="#000" stroke-linecap="butt" stroke-width="1px" fill="#824400"/><path fill="#020202" d="m260.47,165.36c-2.0188,1.1076-4.4827,0.30159-3.7666-2.5111,2.2388-1.3648,4.7952,0.41586,3.7666,2.5111z"/><path d="m241.59,190.3c-2.0188,1.1076-4.4827,0.30159-3.7666-2.5111,2.2388-1.3648,4.7952,0.41586,3.7666,2.5111z" transform="matrix(0.80806708,0,0,0.80806708,59.985273,18.407416)" filter="url(#filter3659-7-4)" fill="#020202"/><path d="m241.59,190.3c-2.0188,1.1076-4.4827,0.30159-3.7666-2.5111,2.2388-1.3648,4.7952,0.41586,3.7666,2.5111z" transform="matrix(0.7416833,-0.32074644,0.32074644,0.7416833,22.990966,107.47585)" filter="url(#filter3659-9-1-4)" fill="#020202"/><path stroke-linejoin="round" d="m318.53,190.33c3.1393-2.7859,9.2116-0.95072,11.954,1.259,1.2803,0.44783-0.51705,2.5261-2.9786,3.8689,1.8509-0.63331,2.7191-3.3347,4.1514-2.7482,1.1779,0.48233,0.99545,1.3428,0.57601,2.8751-0.316,1.1544-1.309,1.5238-3.1862,1.8776,1.5823,0.0935,3.3511-1.432,3.522-0.88563,0.38938,1.2445,1.2727,11.134-0.5761,16.101-0.82458,2.2151-3.9156,6.8151-6.5311,6.5926-3.0551-0.25984-4.5776-5.4346-4.4908-8.4259,0.19329-6.6579-5.7319-16.018-2.4404-20.514h-0.00002z" stroke="#000" stroke-linecap="round" stroke-width="1px" fill="#ca8f33"/><path stroke-linejoin="round" d="M318.43,211.61c12-12.29-3.71-24.03-10.24-13.97" stroke="#000" stroke-linecap="round" stroke-width="1px" fill="#824400"/><path d="m315.52,192.94c1.6082-1.3686-4.9736-7.448-7.5546-5.5349-3.0695,2.2752,6.2171,6.6731,7.5546,5.5349z" stroke="#000" fill="#d8d8d8"/><path fill="#020202" d="m316.3,193.13c1.2523-0.84731-1.0775-3.578-2.1964-2.6255-1.5082,1.2839,0.77652,3.5862,2.1964,2.6255z"/><path stroke-linejoin="miter" d="m320.96,188.63c1.6875-2.8496,4.8592-1.4074,6.1294,1.0282-1.5189,0.4326-4.8056-0.43161-6.1294-1.0282z" stroke="#000" stroke-linecap="butt" stroke-width="1px" fill="#020202"/><path stroke-linejoin="round" d="m306.32,187.04c-6.4768-2.5443-5.7469,1.5121-0.002,5.7213" stroke="#000" stroke-linecap="round" stroke-width="1px" fill="#824400"/><path stroke-linejoin="round" d="m322.83,192.41c-9.6797,5.7314-10.465,4.3309-14.657,9.9963" stroke="#000" stroke-linecap="round" stroke-width="1px" fill="none"/><path stroke-linejoin="round" d="m323.74,194.91c-6.0086,8.6056-8.1602,6.1976-16.165,12.989" stroke="#000" stroke-linecap="round" stroke-width="1px" fill="none"/><path stroke-linejoin="round" d="m308.36,186.67c0.36835-3.4517-3.8167-4.0514-7.1903-3.6538" stroke="#000" stroke-linecap="round" stroke-width="1px" fill="none"/><path fill="#ca8f33" d="m340.45,226.51c8.3381-0.14569,13.509,22.609,5.867,23.255-5.953,0.50313-9.0248-23.2-5.867-23.255z"/><path stroke-linejoin="miter" d="m172.01,300c2.5448-26.296-22.058-29.742-24.147-29.786-28.271-0.59221-108.92-0.37801-148.16-0.68149" stroke="#5c5c5c" stroke-linecap="butt" stroke-width="1px" fill="none"/><path stroke-linejoin="miter" d="m317.06,216.26c-3.9848,3.2518-2.0819,10.531,0.16812,11.097,5.7858,10.185,14.404,14.714,19.981-1.6254,1.6561-3.4371,4.863-6.9514,1.7375-7.8187,1.3993-3.6495-1.5261-4.9189-3.1107-3.6151-2.2497-0.16921-2.3908,0.53439-2.0738,2.9145-0.60388,1.711-3.7818,6.8499-4.9882,7.034-4.0135-2.8768-5.7174-9.9923-11.714-7.9868z" stroke="#000" stroke-linecap="butt" stroke-width="1px" fill="#824400"/></g><g id="layer4" display="none"><path fill="#FFF" d="M0,300,0,0,400,0,400,300,0,300z"/><path d="M0,300,0,0,400,0,400,300,0,300z" fill="#b9d0ff"/><path stroke-linejoin="miter" d="m340.89,226.64c0.69536-1.0553,0.59183-2.203,0.60604-4.2422-1.1666-2.3636,2.465-4.5921,5.5755-1.9393,1.0751-0.2831,3.1155,2.1667,2.0605,4.2422,2.07,3.3617-1.536,5.5552-3.3938,5.3331l-2.7878,1.2121-2.0605-4.6059z" stroke="#000" stroke-linecap="butt" stroke-width="1px" fill="#824400"/><path stroke-linejoin="miter" d="m0,225.06c38.153-18.715,85.377-22.395,103.07-31.263,22.727-11.39,29.294-5.0521,51.397,3.9106,8.31-45.2-34.6-85.89-69.276-82.69-30.007,2.77-62.289-34.391-85.194-62.696" stroke="#020202" stroke-linecap="butt" stroke-width="1px" fill="#375062"/><path stroke-linejoin="round" d="m312.24,183.91c-0.47421-4.1113-1.4042-6.656-4.3169-6.1039" stroke="#000" stroke-linecap="round" stroke-width="1px" fill="none"/><path stroke-linejoin="round" d="m289.69,194.76c3.8718-7.0255,2.9912-14.7-2.4184-14.938" stroke="#000" stroke-linecap="round" stroke-width="1px" fill="none"/><path stroke-linejoin="round" d="m286.94,197.83c7.8732-10.695-3.8441-11.387-10.638-12.035" stroke="#000" stroke-linecap="round" stroke-width="1px" fill="none"/><path stroke-linejoin="miter" d="m301.06,221.3c-14.808,10.641-37.177-5.6063-33.264-14.504,7.9527-18.086,46.684,4.8611,33.264,14.504z" stroke="#000" stroke-linecap="butt" stroke-width="1px" fill="#c87f7f"/><path fill="#767676" d="m86.85,183.99c-19.514,19.903-50.301,14.669-59.476,9.0224,5.2922,25.12,81.683,0.37505,77.411-5.7298-6.1544,2.2819-18.596,7.2044-17.935-3.2926z"/><path stroke-linejoin="miter" d="m46.927,117.32c20.458-6.0021,59.442-18.041,73.184,9.4972,15.528,31.115-10.212,40.926-35.497,46.675-27.595,6.2743-58.174,25.907-85.174,42.711" stroke="#000" stroke-linecap="butt" stroke-width="1px" fill="#375062"/><path stroke-linejoin="miter" d="M148.44,129.05c6.74-30.849-33.35-49.498-65.346-44.233,6.0214,14.976,25.518,80.008,44.819,84.023,7.1904,1.4959,17.658-26.828,20.523-39.795z" stroke="#000" stroke-linecap="butt" stroke-width="1px" fill="#bd5c7e"/><path stroke-linejoin="miter" d="m136.6,180.1c-5.1737-0.51093-12.553-4.6764-21.997-1.8025,27.73-12.687,21.344-28.589,20.54-31.195-6.9072,2.8788-13.171,0.36229-15.572-5.6924,4.4338,1.0204,11.231,7.4506,18.068-3.7675-13.927-1.6161-13.746-10.316-10.284-17.789,2.2737,4.9368,3.3027,13.105,11.874,9.108,18.351-29.769-39.553-41.822-56.8-43.915,43.57-14.905,74.903,7.5412,81.291,5.9846-1.2733,0.21165-3.63-0.26436-6.4522-1.4288-0.18888-9.0486-5.6589-9.0726-10.85-11.131,2.8664-1.3397,16.79-4.1462,17.575,8.42,3.1963-5.7923,4.2001-8.338,12.353-14.145-8.878,7.9357-5.3079,11.649-2.5551,12.841,0.77796-6.3016,6.2748-11.128,14.474-10.886-4.2208,2.3128-6.4156,4.151-3.488,6.1925,15.033-1.5368,31.067,4.4838,43.428,14.379,10.553,8.9465,19.97,23.613,24.364,41.288,5.4847,4.0166,6.5451,7.7766,5.6995,10.723-1.3451,1.5407-1.701,3.3288-7.6438,1.2383,1.9868,0.36555,4.5434,0.74618,4.7524,1.9859-4.2745,71.265-75.6,97.731-118.78,29.592z" stroke="#000" stroke-linecap="butt" stroke-width="1px" fill="#375062"/><path stroke-linejoin="miter" d="m264.35,179.15c-17.384-10.67-41.725-13.071-57.902-7.0138-13.923,5.2131-27.447,21.045-29.761,31.215-0.84724,3.7234-0.68885,22.238,32.622,14.815,16.578-3.9861,31.647-14.818,44.161-27.395,11.481-0.23954,23.161-2.32,10.881-11.622z" stroke="#000" stroke-linecap="butt" stroke-width="1px" fill="#d8d8d8"/><path stroke-linejoin="miter" d="m235.26,112.45s-11.936-22.952-22.343-24.433c-11.886-1.691-16.034,18.868-16.034,18.868" stroke="#000" stroke-linecap="butt" stroke-width="1px" fill="#375062"/><path stroke-linejoin="miter" d="m241.53,171.75c-8.8404,3.0673-16.439-12.052-18.399-21.202-1.7442-8.1433-1.0548-22.894,7.2097-23.921,9.3545-1.1624,19.959,16.237,14.539,24.255-5.9346,8.7794-2.5442,20.588-3.3498,20.868z" stroke="#020202" stroke-linecap="butt" stroke-width="1px" fill="#ffe44d"/><path stroke-linejoin="miter" d="m246.25,146.55c-2.7479-2.0979-5.7892-1.2798-8.4137,6.0643-4.0177,11.243,1.5405,15.501,6.1391,13.604,2.2317-0.92108-2.5429-4.3669-2.5443-6.7812-0.003-4.586,8.464-10.104,4.8188-12.887z" stroke="#398305" stroke-linecap="butt" stroke-width="1px" fill="#398305"/><path stroke-linejoin="miter" d="m246.6,148.14c-2.0298-1.2067-4.7153,4.3652-5.7325,7.1877-0.96784,2.6854-1.0171,8.2055,2.0262,8.3277,2.9864,0.11987,5.288-2.7401,6.6435-7.6188,2.0095-7.2325-0.72351-6.5805-2.9372-7.8965z" stroke="#000" stroke-linecap="butt" stroke-width="1px" fill="#000"/><path fill="#aeaeae" d="m246.38,156.31c1.1455,0.48074,0.33618,2.6043-0.20816,3.7209-0.43035,0.88275-1.3395,2.3844-2.216,1.9415-0.98771-0.49898-0.16321-2.2938,0.27942-3.308,0.42469-0.97296,1.1659-2.7652,2.1448-2.3544z"/><path stroke-linejoin="miter" d="m264.73,164.91c0.91524,0.27585,4.8612,7.9038,4.1719,10.479-0.6893,2.5756-3.806,3.893-8.6909,4.4537,2.2946-3.3576,2.1933-1.9014,3.2747-5.4896-3.9053,9.83-11.253,12.681-17.117,11.427-7.2309-1.5466-12.245-8.7848-18.334-13.403,5.7958-3.646,10.963-10.796,18.093-11.809,3.8176-0.54229,9.5746-0.48043,11.065,3.3747,3.4329,9.7587,10.601,13.249,7.5368,0.96685z" stroke="#000" stroke-linecap="butt" stroke-width="1px" fill="#d8d8d8"/><path stroke-linejoin="miter" d="m208.93,139.5s30.762,18.921,21.258,31.949c-5.2982,7.2632-26.819-2.856-26.819-2.856" stroke="#000" stroke-linecap="butt" stroke-width="1px" fill="#375062"/><path stroke-linejoin="miter" d="m263.55,172.76c-1.8081,0.4142-5.4183-5.7624-6.8249-9.1781-0.91688-2.2266-3.9017-2.3127-6.0218-3.6475,1.9592-4.3316,9.1924-6.8363,13.32-4.1383,5.967,3.9,5.9693,15.488-0.47359,16.964z" stroke="#000" stroke-linecap="butt" stroke-width="1px" fill="#020202"/><path fill="#aeaeae" d="m261.17,158.54c2.6684-0.95908,4.1577,0.27383,4.3422,2.7731-2.477,0.59847-3.8861-0.35674-4.3422-2.7731z"/><path stroke-linejoin="miter" d="m253.65,149.46c-9.7436-13.005-12.805-25.158-16.09-24.339-3.3877-6.4306-6.1606-12.967-8.9772-19.496,0.18183,3.376,0.36365,6.7521,0.54547,10.128-2.8515-10.624-8.8786-15.635-15.89-18.904,2.4139,2.3574,4.7789,4.7001,4.0618,6.1138-4.3493-4.286-12.343,0.55337-19.639,6.9609,3.7001-1.112,6.3144-1.8945,7.7268-0.49522-6.0178,3.2485-5.2044,10.361-3.9568,17.72,2.4747-7.8325,5.0591-15.428,10.85-16.104,3.3968-0.66838,7.7748,3.281,12.788,10.22-8.1643,1.0022-7.4692,7.9489-7.4241,13.731-0.0948-9.6979,2.7079-14.247,8.8271-12.57,8.4865,10.513,14.318,26.234,27.178,27.036z" stroke="#000" stroke-linecap="butt" stroke-width="1px" fill="#020202"/><path stroke-linejoin="miter" d="m249.21,163.64c-17.251-9.057-56.856-15.204-82.855-2.5829" stroke="#000" stroke-linecap="butt" stroke-width="1px" fill="none"/><path stroke-linejoin="miter" d="m248.99,170.77c-29.792-0.322-50.686,7.8534-78.146,17.77" stroke="#000" stroke-linecap="butt" stroke-width="1px" fill="none"/><path stroke-linejoin="miter" d="m347.31,225.56c-0.29599,1.851-2.1457,2.3928-3.435,2.2255-0.62361-0.7932-0.83954-0.77385-1.7175-1.6207,2.9958,0.26338,3.5758-4.2286,3.943-4.6203" stroke="#000" stroke-linecap="butt" stroke-width="1px" fill="none"/><path stroke-linejoin="miter" d="m326.16,215.48c-1.0912,20.792,2.3599,28.18,18.111,28.68,20.221-11.915,4.0583-31.945-18.111-28.68z" stroke="#000" stroke-linecap="butt" stroke-width="1px" fill="#824400"/><path fill="#ca8f33" d="m340.6,218.08c5.8335-0.61513,17.007,11.979,10.081,12.799-7.199,0.85189-16.586-12.113-10.081-12.799z"/><path stroke-linejoin="miter" d="m329.38,214.37c5.7163-4.8106,22.291-10.871,27.085,2.6044,1.7745,4.9881-7.5581,5.7337-12.173,3.4335-5.9677-2.9742-1.5948-7.759,2.9653-7.9595-4.422-0.30589-5.3025,4.3921-7.6727,3.3784" stroke="#000" stroke-linecap="butt" stroke-width="1px" fill="#824400"/><path stroke-linejoin="miter" d="m319.11,186.92c-10.536-10.683-26.653-3.2788-31.357,9.1812-12.411,1.504-17.676,3.6896-19.657,9.7468,5.5618-3.6529,18.407-5.7927,20.02,4.9861-2.052,2.906-5.2579,0.96874-8.415-0.22734,5.6974,5.9646,8.9562,3.6206,9.7943,3.5355,12.446,18.378,49.437,9.2433,29.615-27.222z" stroke="#000" stroke-linecap="butt" stroke-width="1px" fill="#824400"/><path fill="#020202" d="m255.52,169.89c-1.801,1.4348-4.3661,1.0596-4.1389-1.8339,1.9741-1.7257,4.7961-0.40579,4.1389,1.8339z"/><path d="m241.59,190.3c-2.0188,1.1076-4.4827,0.30159-3.7666-2.5111,2.2388-1.3648,4.7952,0.41586,3.7666,2.5111z" transform="matrix(0.79629339,-0.13743811,0.13743811,0.79629339,32.960708,59.184026)" filter="url(#filter3659-7-4-6)" fill="#020202"/><path d="m241.59,190.3c-2.0188,1.1076-4.4827,0.30159-3.7666-2.5111,2.2388-1.3648,4.7952,0.41586,3.7666,2.5111z" transform="matrix(0.67632347,-0.44222049,0.44222049,0.67632347,11.654401,153.2468)" filter="url(#filter3659-9-1-4-9)" fill="#020202"/><path stroke-linejoin="round" d="m317.22,186.68c2.868-3.0644,9.0841-1.799,12.019,0.14757,1.3163,0.32745-0.2811,2.5631-2.6079,4.1279,1.7843-0.80184,2.3989-3.572,3.8793-3.1206,1.2175,0.37127,1.1154,1.2449,0.83957,2.8095-0.20783,1.1787-1.1624,1.6384-2.9988,2.1644,1.5841-0.0533,3.2042-1.7359,3.425-1.2077,0.50286,1.2031,2.2974,10.969,0.9161,16.085-0.61609,2.2819-3.2683,7.1482-5.8931,7.1687-3.066,0.024-5.0608-4.9877-5.2511-7.9743-0.42356-6.6472-7.1893-15.419-4.328-20.2h-0.00002z" stroke="#000" stroke-linecap="round" stroke-width="1px" fill="#ca8f33"/><path stroke-linejoin="round" d="m319.08,207.88c10.817-13.354-5.9165-23.589-11.483-12.963" stroke="#000" stroke-linecap="round" stroke-width="1px" fill="#824400"/><path d="m314.46,189.55c1.4746-1.5115-5.6414-6.9559-8.0343-4.8122-2.8458,2.5495,6.8079,6.0693,8.0343,4.8122z" stroke="#000" fill="#d8d8d8"/><path fill="#020202" d="m315.26,189.67c1.1686-0.95955-1.404-3.463-2.4299-2.411-1.3829,1.418,1.105,3.4989,2.4299,2.411z"/><path stroke-linejoin="miter" d="m319.47,184.76c1.4166-2.9935,4.7082-1.851,6.1982,0.45665-1.4724,0.57129-4.8249,0.0149-6.1982-0.45665z" stroke="#000" stroke-linecap="butt" stroke-width="1px" fill="#020202"/><path stroke-linejoin="round" d="m304.75,184.53c-6.6845-1.9341-5.5823,2.0374,0.52701,5.697" stroke="#000" stroke-linecap="round" stroke-width="1px" fill="#824400"/><path stroke-linejoin="round" d="m321.68,188.35c-7.1257,3.6924-11.783,7.4234-15.924,12.508" stroke="#000" stroke-linecap="round" stroke-width="1px" fill="none"/><path stroke-linejoin="round" d="m322.82,190.76c-3.3464,2.6686-2.9628,7.5562-12.177,11.283" stroke="#000" stroke-linecap="round" stroke-width="1px" fill="none"/><path stroke-linejoin="round" d="m306.75,183.98c0.0474-3.471-2.2638-5.5413-5.5861-4.8332" stroke="#000" stroke-linecap="round" stroke-width="1px" fill="none"/><path stroke-linejoin="miter" d="m42.072,126.82c-6.033,2.0192-11.351,7.8192-16.212,14.197,7.8116-4.2524,14.304-7.2436,21.068-8.0574-11.122,0.78355-30.154,13.429-46.369,22.905" stroke="#000" stroke-linecap="butt" stroke-width="1px" fill="none"/><path stroke-linejoin="miter" d="m326.18,220.56c1.3341-11.756-8.0231-6.2743-14.202-0.78034-3.8074,3.3852-10.776,7.7064-8.2717,13.422,2.1603,4.9295,28.235,3.0756,25.439-9.3642-2.3194-10.322-10.413,4.0026-14.202,5.9306" stroke="#000" stroke-linecap="butt" stroke-width="1px" fill="#824400"/><path stroke-linejoin="miter" d="m331.53,233.19c-7.7173,3.6136-9.2923,9.2747-13.11,14.188,0.4644,2.2791,1.4316,4.3347,3.3977,5.9464-1.8617-1.6966-2.9272-3.6917-3.4518-5.8897-6.1071,5.1475-10.155,13.86-19.701,15.568l24.964,2.8735c3.2666-2.6341,5.727-5.7072,7.1013-8.3413l-1.8071-0.74673,1.7581,0.77252c5.584-0.95453,15.684-6.7025,14.499-12.877" stroke="#000" stroke-linecap="butt" stroke-width="1px" fill="#824400"/><path stroke-linejoin="miter" d="m331.89,238.58c-1.4148-13.352,19.625-27.776,15.266-0.17959,0.65818-4.6103,4.985-12.05,6.8246-8.8002,3.1043,5.4847-0.59929,14.046-6.1062,18.678-7.426,3.6754-7.4488-6.8859-8.9798-14.547" stroke="#000" stroke-linecap="butt" stroke-width="1px" fill="#824400"/><path stroke-linejoin="miter" d="m324.41,243.36c-26.489-4.3777-47.207-0.62544-55.556,0.60947,21.166-0.56317,31.959-0.52261,58.12,3.5248" stroke="#000" stroke-linecap="butt" stroke-width="1px" fill="#824400"/><path stroke-linejoin="miter" d="m0,270.39c56.238-0.41346,34.77,0.22062,53.304,0.00006,9.5087-0.11316,20.857,6.7039,24.581,15.084,2.6071-5.959,7.3637-9.6328,12.006-11.791,27.549-12.8,212.23-12.48,310.11-13.2v39.521h-400v-29.609z" stroke="#938299" stroke-linecap="butt" stroke-width="1px" fill="#938299"/><path stroke-linejoin="miter" d="m400,260.4c-63.524,0.52528-277.68-0.57951-306.19,11.602-6.9454,2.9678-13.122,6.5328-15.715,13.029" stroke="#5c5c5c" stroke-linecap="butt" stroke-width="1px" fill="none"/><path stroke-linejoin="miter" d="M80.011,300c2.545-26.3-22.058-29.74-24.146-29.79-28.271-0.59-37.176-0.37-56.165-0.68" stroke="#5c5c5c" stroke-linecap="butt" stroke-width="1px" fill="none"/></g></svg>